<?xml version="1.0" encoding="iso-8859-1"?>
<!DOCTYPE svg PUBLIC "-//W3C//DTD SVG 1.0//EN" "http://www.w3.org/TR/2001/REC-SVG-20010904/DTD/svg10.dtd">
<!-- Creator: CorelDRAW -->
<svg xmlns="http://www.w3.org/2000/svg" xmlns:odm="http://product.corel.com/CGS/11/cddns/" xmlns:corel-charset="http://product.corel.com/CGS/11/cddns/" xml:space="preserve" width="8.26772in" height="11.6929in" style="shape-rendering:geometricPrecision; text-rendering:geometricPrecision; image-rendering:optimizeQuality; fill-rule:evenodd"
     viewBox="0 0 8267.72 11692.9">
 <defs>
  <style type="text/css">
   <![CDATA[
    .str0 {stroke:#1F1A17;stroke-width:3}
    .str1 {stroke:#DA251D;stroke-width:3}
    .fil1 {fill:#1F1A17}
    .fil2 {fill:#DA251D}
    .fil0 {fill:#FFF500}
    .fil3 {fill:#FFFFFF}
   ]]>
  </style>
 </defs>
 <g id="Ebene_x0020_2">
  <g>
   <path class="fil0" d="M1414.06 2417.15l5522.3 0c103.528,0 188.228,84.7008 188.228,188.228l0 1413.6c0,103.524 -84.7008,188.224 -188.228,188.224l-5522.3 0c-103.528,0 -188.228,-84.7008 -188.228,-188.224l0 -1413.6c0,-103.528 84.7008,-188.228 188.228,-188.228z"/>
   <g>
    <g>
     <path class="fil1 str0" d="M2563.75 3945.06l3932.25 0c181.524,0 330.039,-142.335 330.039,-316.307l0 0c0,-173.969 -148.516,-316.307 -330.039,-316.307l-3932.25 0c-181.524,0 -330.039,142.339 -330.039,316.307l0 0c0,173.972 148.516,316.307 330.039,316.307z"/>
     <ellipse class="fil0" cx="2452.01" cy="3312.17" rx="637.346" ry="637.343"/>
     <circle class="fil1 str0" cx="2362.69" cy="3312.17" r="637.343"/>
     <ellipse class="fil0" cx="2273.37" cy="3312.17" rx="637.346" ry="637.343"/>
     <circle class="fil2 str1" cx="2161.71" cy="3312.17" r="637.343"/>
     <path class="fil3" d="M2476.02 2888.65c-34.626,-0.0590551 -52.689,24.3228 -68.3819,49.5157 43.6299,15.3268 69.563,50.6969 94.3228,84.8937 18.0591,-25.9764 37.6969,-48.7953 68.3819,-49.5197 -25.126,-36.9882 -56.5748,-66.8425 -94.3228,-84.8898z"/>
     <path class="fil3" d="M3443.51 3651.76l-20.2244 0 0 91.6496c0,12.0551 -2.64173,20.9724 -7.9685,26.6496 -5.33071,5.72441 -12.2559,8.56299 -20.8189,8.56299 -9.21654,0 -16.3425,-2.98425 -21.4173,-8.96063 -5.03543,-5.98031 -7.57874,-14.6969 -7.57874,-26.252l0 -219.516c0,-12.4488 2.79134,-21.4646 8.37008,-27.0472 5.58268,-5.5748 14.5984,-8.36614 27.0472,-8.36614l93.9961 0c12.9488,0 24.0551,0.551181 33.2165,1.64567 9.22441,1.09055 17.5354,3.33465 24.9094,6.72047 8.9685,3.73228 16.8858,9.16929 23.7598,16.1378 6.87402,7.02362 12.1024,15.1417 15.689,24.4606 3.53543,9.26378 5.33465,19.0748 5.33465,29.4882 0,21.2717 -5.98031,38.252 -17.9843,50.9567 -12.0079,12.7008 -30.2362,21.7165 -54.5906,27.0433 10.2559,5.48031 20.0236,13.5 29.3858,24.1614 9.3189,10.6102 17.685,21.9173 25.0079,33.9213 7.31496,11.9961 13,22.8622 17.1299,32.5236 4.09055,9.66142 6.12598,16.2913 6.12598,19.9252 0,3.78346 -1.24409,7.51969 -3.62992,11.2047 -2.3937,3.68898 -5.6811,6.62598 -9.81496,8.76378 -4.1378,2.14567 -8.9685,3.18898 -14.3937,3.18898 -6.47638,0 -11.9567,-1.53937 -16.3425,-4.57874 -4.42913,-3.03543 -8.21654,-6.87402 -11.4055,-11.5591 -3.18504,-4.6811 -7.47244,-11.5551 -12.9488,-20.6181l-23.1142 -38.5591c-8.31496,-14.1378 -15.7362,-24.9016 -22.315,-32.2756 -6.52362,-7.42126 -13.2008,-12.4488 -19.9213,-15.185 -6.72441,-2.74409 -15.2402,-4.08661 -25.5039,-4.08661zm33.0748 -119.894l-53.2992 0 0 78.4528 51.752 0c13.8976,0 25.5551,-1.20079 35.0197,-3.58661 9.46457,-2.44488 16.685,-6.52362 21.7165,-12.3031 4.98425,-5.73228 7.47244,-13.6969 7.47244,-23.8071 0,-7.9252 -1.99213,-14.8937 -6.02756,-20.9291 -4.03543,-6.07087 -9.61417,-10.5551 -16.7362,-13.5394 -6.72441,-2.84646 -20.0276,-4.2874 -39.8976,-4.2874zm310.567 151.772l-103.902 0c0.145669,12.0551 2.53543,22.7126 7.27165,31.9252 4.78346,9.21654 11.0591,16.1417 18.874,20.8228 7.87008,4.6811 16.5433,7.02362 26.0079,7.02362 6.32283,0 12.1496,-0.748031 17.378,-2.24016 5.28346,-1.49606 10.3622,-3.83858 15.2913,-7.02756 4.93701,-3.18898 9.4685,-6.57087 13.6496,-10.2087 4.13386,-3.63386 9.51575,-8.56299 16.1417,-14.7953 2.68898,-2.33858 6.62205,-3.48031 11.6535,-3.48031 5.48031,0 9.8622,1.49213 13.248,4.47638 3.33858,2.94094 5.0315,7.17717 5.0315,12.6535 0,4.78346 -1.84252,10.4094 -5.62992,16.8386 -3.73622,6.37402 -9.40945,12.5512 -17.0354,18.4803 -7.56693,5.87795 -17.0827,10.8031 -28.5906,14.689 -11.4528,3.88976 -24.6496,5.82677 -39.5984,5.82677 -34.1181,0 -60.622,-9.7126 -79.5984,-29.189 -18.9252,-19.4724 -28.3858,-45.8701 -28.3858,-79.1929 0,-15.6929 2.33858,-30.2362 7.01969,-43.685 4.6378,-13.4016 11.4567,-24.9567 20.4213,-34.5236 8.9685,-9.61024 19.9764,-16.9843 33.0748,-22.1142 13.1024,-5.12598 27.6457,-7.66535 43.5866,-7.66535 20.7677,0 38.5512,4.37795 53.3937,13.1457 14.8465,8.71654 26.0039,20.0787 33.378,33.9252 7.41732,13.8937 11.1063,27.9961 11.1063,42.3858 0,13.3976 -3.83465,22.0157 -11.5118,26.0039 -7.61811,3.92913 -18.374,5.9252 -32.2756,5.9252zm-103.902 -30.1378l96.3346 0c-1.29528,-18.1811 -6.22835,-31.7283 -14.6969,-40.7441 -8.51969,-9.01969 -19.7244,-13.5472 -33.5748,-13.5472 -13.2441,0 -24.1102,4.58268 -32.5748,13.7008 -8.51969,9.16535 -13.6969,22.7047 -15.4882,40.5906zm382.591 -51.9488l0 154.307c0,17.6378 -1.88976,32.8268 -5.62598,45.5276 -3.78346,12.7008 -9.8189,23.2126 -18.1299,31.5354 -8.27165,8.26772 -19.1299,14.4409 -32.5787,18.4803 -13.3937,4.02756 -30.1339,6.01969 -50.1102,6.01969 -18.2756,0 -34.6181,-2.53937 -49.0118,-7.66535 -14.3937,-5.12992 -25.5,-11.7559 -33.2717,-19.874 -7.77165,-8.07087 -11.6575,-16.4409 -11.6575,-25.0039 0,-6.47638 2.19291,-11.7559 6.57874,-15.8425 4.43307,-4.08661 9.75984,-6.12598 15.9843,-6.12598 7.76772,0 14.5945,3.43701 20.4213,10.311 2.84646,3.49213 5.77953,7.01969 8.8189,10.6063 3.09055,3.53937 6.4252,6.62992 10.1575,9.16929 3.69291,2.48819 8.11811,4.38189 13.2992,5.62598 5.18504,1.24409 11.1614,1.84252 17.9331,1.84252 13.752,0 24.4055,-1.88976 31.9803,-5.72441 7.62205,-3.83858 12.9016,-9.21654 15.9921,-16.0906 3.0315,-6.87795 4.83071,-14.248 5.32677,-22.063 0.5,-7.87008 0.893701,-20.4724 1.14961,-37.8622 -8.17323,11.4094 -17.5827,20.126 -28.2953,26.0512 -10.7087,5.98425 -23.4606,8.9685 -38.2087,8.9685 -17.7756,0 -33.3189,-4.5315 -46.622,-13.5984 -13.2992,-9.11811 -23.5039,-21.8189 -30.6299,-38.1575 -7.12205,-16.3307 -10.7087,-35.2126 -10.7087,-56.6299 0,-15.9409 2.18898,-30.3346 6.52756,-43.189 4.33071,-12.7992 10.5039,-23.6614 18.5787,-32.4724 8.01969,-8.8189 17.3268,-15.4409 27.7953,-19.9252 10.5079,-4.48425 22.063,-6.72835 34.6654,-6.72835 15.0394,0 28.0906,2.8937 39.0984,8.67323 11.0079,5.77953 21.2756,14.7913 30.7323,27.1417l0 -7.22441c0,-9.2126 2.29528,-16.3307 6.82677,-21.3661 4.53543,-5.08268 10.3622,-7.61811 17.4843,-7.61811 10.2598,0 17.0866,3.33465 20.4213,10.0118 3.38583,6.66929 5.07874,16.3346 5.07874,28.8898zm-153.909 67.3425c0,21.5197 4.6811,37.8071 14.0906,48.811 9.41732,11.0118 21.5669,16.5433 36.5118,16.5433 8.81496,0 17.1378,-2.39764 25.0079,-7.12598 7.81496,-4.73622 14.248,-11.8543 19.1772,-21.3701 4.92913,-9.55906 7.37402,-21.1181 7.37402,-34.7205 0,-21.6654 -4.78346,-38.5512 -14.2953,-50.6024 -9.56693,-12.0551 -22.1181,-18.0827 -37.6575,-18.0827 -15.1969,0 -27.3504,5.77953 -36.5118,17.3307 -9.11811,11.5118 -13.6969,27.9449 -13.6969,49.2165zm345.933 14.7441l-103.902 0c0.145669,12.0551 2.53937,22.7126 7.26772,31.9252 4.78346,9.21654 11.0591,16.1417 18.8819,20.8228 7.86614,4.6811 16.5354,7.02362 26,7.02362 6.32283,0 12.1496,-0.748031 17.3819,-2.24016 5.28346,-1.49606 10.3622,-3.83858 15.2913,-7.02756 4.93307,-3.18898 9.4685,-6.57087 13.6496,-10.2087 4.13386,-3.63386 9.51969,-8.56299 16.1378,-14.7953 2.68898,-2.33858 6.62598,-3.48031 11.6575,-3.48031 5.47638,0 9.8622,1.49213 13.252,4.47638 3.33465,2.94094 5.0315,7.17717 5.0315,12.6535 0,4.78346 -1.85039,10.4094 -5.62992,16.8386 -3.74016,6.37402 -9.41732,12.5512 -17.0394,18.4803 -7.56693,5.87795 -17.0787,10.8031 -28.5906,14.689 -11.4567,3.88976 -24.6535,5.82677 -39.5984,5.82677 -34.1181,0 -60.6181,-9.7126 -79.5945,-29.189 -18.9291,-19.4724 -28.3937,-45.8701 -28.3937,-79.1929 0,-15.6929 2.34252,-30.2362 7.02362,-43.685 4.63386,-13.4016 11.4567,-24.9567 20.4213,-34.5236 8.9685,-9.61024 19.9764,-16.9843 33.0748,-22.1142 13.0984,-5.12598 27.6457,-7.66535 43.5866,-7.66535 20.7717,0 38.5512,4.37795 53.3976,13.1457 14.8425,8.71654 26,20.0787 33.374,33.9252 7.41732,13.8937 11.1063,27.9961 11.1063,42.3858 0,13.3976 -3.83858,22.0157 -11.5118,26.0039 -7.62205,3.92913 -18.378,5.9252 -32.2756,5.9252zm-103.902 -30.1378l96.3346 0c-1.29921,-18.1811 -6.22835,-31.7283 -14.6969,-40.7441 -8.51969,-9.01969 -19.7244,-13.5472 -33.5709,-13.5472 -13.252,0 -24.1102,4.58268 -32.5787,13.7008 -8.51575,9.16535 -13.6969,22.7047 -15.4882,40.5906zm240.732 -61.4685l0 6.42913c9.31102,-12.3543 19.5276,-21.3701 30.6339,-27.1457 11.0591,-5.77953 23.8071,-8.66535 38.2008,-8.66535 14,0 26.5512,3.0315 37.5591,9.16142 11.0118,6.07874 19.2795,14.6969 24.7087,25.8543 3.48031,6.47638 5.77953,13.4961 6.82677,21.0157 1.04331,7.52362 1.53937,17.1378 1.53937,28.7953l0 98.8701c0,10.6102 -2.44094,18.6811 -7.27165,24.1102 -4.88189,5.42913 -11.2047,8.16535 -18.9764,8.16535 -7.9252,0 -14.3465,-2.7874 -19.2756,-8.36614 -4.93701,-5.57874 -7.37402,-13.5472 -7.37402,-23.9094l0 -88.5591c0,-17.5354 -2.44488,-30.8819 -7.27165,-40.2008 -4.87795,-9.26378 -14.5945,-13.8976 -29.1417,-13.8976 -9.46063,0 -18.0827,2.84252 -25.8543,8.4685 -7.76772,5.63386 -13.4921,13.3976 -17.1299,23.2638 -2.59055,7.91732 -3.88583,22.7165 -3.88583,44.3307l0 66.5945c0,10.7638 -2.49213,18.8307 -7.47244,24.2087 -5.0315,5.38189 -11.4528,8.06693 -19.378,8.06693 -7.62205,0 -13.9488,-2.7874 -18.878,-8.36614 -4.92913,-5.57874 -7.37008,-13.5472 -7.37008,-23.9094l0 -153.559c0,-10.1181 2.18898,-17.6417 6.62598,-22.6654 4.38189,-4.98425 10.4094,-7.47244 18.0827,-7.47244 4.6811,0 8.86614,1.09449 12.6496,3.2874 3.73622,2.24016 6.77559,5.52362 9.01575,9.96457 2.2874,4.37795 3.43701,9.75984 3.43701,16.1299zm363.413 117.157c0,14.6457 -3.58268,27.1969 -10.7087,37.6063 -7.12205,10.4606 -17.6772,18.3819 -31.6299,23.7598 -13.8976,5.38189 -30.8819,8.06693 -50.8543,8.06693 -19.0787,0 -35.4094,-2.93307 -49.0118,-8.76378 -13.6496,-5.82677 -23.6614,-13.0984 -30.185,-21.8622 -6.47638,-8.77165 -9.7126,-17.5394 -9.7126,-26.3504 0,-5.83071 2.09449,-10.8661 6.22047,-14.9921 4.1378,-4.1378 9.41732,-6.22835 15.7441,-6.22835 5.58268,0 9.86614,1.34252 12.8504,4.08268 2.98819,2.74409 5.82677,6.5748 8.56693,11.5079 5.42913,9.46457 11.9528,16.5315 19.5276,21.1693 7.62205,4.6811 17.9803,7.01969 31.0787,7.01969 10.6142,0 19.3346,-2.38976 26.1535,-7.12205 6.82283,-4.72835 10.2126,-10.1102 10.2126,-16.2402 0,-9.31102 -3.53937,-16.1339 -10.6102,-20.4173 -7.0748,-4.2874 -18.7283,-8.37008 -34.9173,-12.252 -18.2795,-4.53543 -33.1772,-9.3189 -44.6339,-14.2992 -11.5039,-5.02756 -20.6732,-11.6063 -27.5433,-19.7756 -6.87402,-8.16929 -10.311,-18.2283 -10.311,-30.1339 0,-10.6614 3.18898,-20.7205 9.51575,-30.185 6.37402,-9.46063 15.7402,-17.0394 28.1417,-22.6614 12.3504,-5.62992 27.3465,-8.4685 44.8307,-8.4685 13.748,0 26.0984,1.43701 37.0591,4.28346 10.9567,2.83858 20.126,6.67323 27.4449,11.4488 7.32283,4.83858 12.9016,10.1693 16.7362,16 3.83465,5.82677 5.72835,11.5472 5.72835,17.1299 0,6.0748 -2.04331,11.0591 -6.12598,14.9882 -4.08268,3.88976 -9.91339,5.83071 -17.437,5.83071 -5.42913,0 -10.063,-1.59449 -13.8976,-4.6811 -3.83465,-3.14173 -8.2126,-7.76772 -13.1496,-13.9961 -3.98031,-5.1811 -8.7126,-9.36614 -14.1929,-12.4528 -5.43307,-3.13386 -12.8504,-4.6811 -22.1654,-4.6811 -9.61417,0 -17.5827,2.03543 -23.9606,6.12598 -6.32283,4.08661 -9.51181,9.16142 -9.51181,15.2913 0,5.57874 2.33858,10.1102 7.02362,13.6969 4.63386,3.58661 10.9567,6.52362 18.874,8.86614 7.87008,2.34252 18.7795,5.17717 32.6772,8.57087 16.4882,3.98031 29.937,8.81102 40.3465,14.3937 10.4606,5.57874 18.3819,12.1535 23.7598,19.7244 5.37795,7.62205 8.06693,16.2874 8.06693,26zm93.9961 -195.209l0 81.1457c10.0118,-10.3661 20.1732,-18.2835 30.5354,-23.811 10.4094,-5.52756 23.2047,-8.27165 38.5472,-8.27165 17.6417,0 33.0787,4.18504 46.378,12.5551 13.2992,8.37008 23.6102,20.4724 30.9291,36.3661 7.32677,15.8819 11.0118,34.7638 11.0118,56.5315 0,16.0866 -2.04331,30.8307 -6.12992,44.2835 -4.07874,13.3937 -10.0079,25.0512 -17.7835,34.9134 -7.8189,9.8622 -17.2362,17.4843 -28.3425,22.8622 -11.0551,5.38189 -23.3071,8.06693 -36.6575,8.06693 -8.16929,0 -15.8386,-0.992126 -23.0591,-2.93307 -7.17323,-1.94488 -13.2992,-4.48819 -18.3819,-7.67717 -5.08268,-3.18504 -9.37008,-6.42126 -12.9488,-9.81102 -3.53543,-3.38583 -8.27165,-8.41732 -14.0984,-15.189l0 5.27953c0,9.96063 -2.38976,17.5315 -7.22441,22.6614 -4.78346,5.13386 -10.8583,7.66929 -18.2756,7.66929 -7.52362,0 -13.5039,-2.53543 -17.9843,-7.66929 -4.48425,-5.12992 -6.72441,-12.7008 -6.72441,-22.6614l0 -231.969c0,-10.7559 2.18898,-18.874 6.52362,-24.4055 4.33465,-5.52756 10.4134,-8.26772 18.185,-8.26772 8.16535,0 14.4882,2.6378 18.874,7.86614 4.43307,5.28346 6.62598,12.7559 6.62598,22.4646zm2.54331 157.854c0,21.122 4.83071,37.3543 14.4882,48.7126 9.66535,11.3543 22.3189,17.0354 38.0551,17.0354 13.3504,0 24.8622,-5.82677 34.5236,-17.437 9.65748,-11.6024 14.4921,-28.2402 14.4921,-49.9055 0,-14 -1.98819,-26.0512 -6.02362,-36.1654 -4.03937,-10.1102 -9.7126,-17.9252 -17.1339,-23.4567 -7.37402,-5.52756 -16.0433,-8.27165 -25.8583,-8.27165 -10.1575,0 -19.1732,2.74409 -27.0433,8.27165 -7.92126,5.5315 -14.1457,13.4961 -18.6772,23.9528 -4.58268,10.4134 -6.82283,22.8661 -6.82283,37.2638zm330.189 76.8071l0 -6.77559c-6.32283,8.01969 -12.9961,14.7913 -20.0197,20.2205 -6.97638,5.42913 -14.6417,9.51181 -22.9646,12.1575 -8.26772,2.6378 -17.7323,3.98425 -28.3937,3.98425 -12.8504,0 -24.3583,-2.6378 -34.5157,-7.97244 -10.2126,-5.32677 -18.0827,-12.6496 -23.6614,-21.9646 -6.62205,-11.3071 -9.90945,-27.5 -9.90945,-48.6654l0 -105.244c0,-10.6654 2.38976,-18.5827 7.16929,-23.8622 4.83465,-5.23228 11.1575,-7.87008 19.0748,-7.87008 8.0748,0 14.5512,2.6378 19.4803,7.97244 4.92913,5.32677 7.37402,13.2441 7.37402,23.7598l0 85.0197c0,12.3031 1.04331,22.6693 3.1378,31.0315 2.04331,8.36614 5.77559,14.8937 11.1575,19.6299 5.37402,4.72835 12.7008,7.12205 21.9134,7.12205 8.91732,0 17.3858,-2.64567 25.2559,-7.97244 7.91732,-5.32677 13.6969,-12.2559 17.3346,-20.8189 2.98425,-7.51969 4.48031,-24.0079 4.48031,-49.4134l0 -64.5984c0,-10.5157 2.44094,-18.4331 7.37402,-23.7598 4.92913,-5.33465 11.3543,-7.97244 19.2795,-7.97244 7.91732,0 14.2402,2.6378 19.0748,7.87008 4.78346,5.27953 7.16929,13.1969 7.16929,23.8622l0 153.862c0,10.1575 -2.29134,17.7323 -6.92126,22.7638 -4.58661,5.07874 -10.5118,7.61417 -17.7835,7.61417 -7.27165,0 -13.252,-2.6378 -17.9803,-7.8622 -4.72835,-5.27953 -7.12598,-12.6535 -7.12598,-22.1181zm155.461 -46.6732l0 44.378c0,10.7638 -2.53543,18.8307 -7.57087,24.2087 -5.08268,5.38189 -11.5039,8.06693 -19.2756,8.06693 -7.62205,0 -13.9449,-2.73622 -18.878,-8.16535 -4.92913,-5.42913 -7.37402,-13.5 -7.37402,-24.1102l0 -147.886c0,-23.8583 8.62205,-35.811 25.8543,-35.811 8.8189,0 15.189,2.79134 19.0748,8.36614 3.88189,5.57874 6.0315,13.7992 6.4252,24.7087 6.32283,-10.9094 12.8504,-19.1299 19.5276,-24.7087 6.72441,-5.5748 15.6417,-8.36614 26.7953,-8.36614 11.1142,0 21.9685,2.79134 32.4764,8.36614 10.5157,5.57874 15.7441,12.9528 15.7441,22.1654 0,6.52756 -2.24016,11.8543 -6.67717,16.0906 -4.48425,4.18504 -9.31496,6.32677 -14.4921,6.32677 -1.99606,0 -6.67717,-1.24803 -14.1496,-3.63386 -7.42126,-2.39764 -14.0433,-3.59055 -19.7244,-3.59055 -7.76772,0 -14.1457,2.04331 -19.0748,6.12598 -4.93307,4.08268 -8.76772,10.1654 -11.4567,18.1811 -2.74016,8.06693 -4.6378,17.6339 -5.6811,28.6929 -1.04724,11.1063 -1.54331,24.6535 -1.54331,40.5945zm307.287 -100.417l0 154.307c0,17.6378 -1.89764,32.8268 -5.62992,45.5276 -3.7874,12.7008 -9.81496,23.2126 -18.1299,31.5354 -8.27559,8.26772 -19.1299,14.4409 -32.5787,18.4803 -13.3976,4.02756 -30.1378,6.01969 -50.1063,6.01969 -18.2795,0 -34.622,-2.53937 -49.0157,-7.66535 -14.3937,-5.12992 -25.5,-11.7559 -33.2756,-19.874 -7.76772,-8.07087 -11.6535,-16.4409 -11.6535,-25.0039 0,-6.47638 2.19291,-11.7559 6.5748,-15.8425 4.43307,-4.08661 9.75984,-6.12598 15.9882,-6.12598 7.77165,0 14.5945,3.43701 20.4213,10.311 2.84252,3.49213 5.77953,7.01969 8.8189,10.6063 3.09055,3.53937 6.4252,6.62992 10.1575,9.16929 3.68898,2.48819 8.12205,4.38189 13.2992,5.62598 5.1811,1.24409 11.1614,1.84252 17.9331,1.84252 13.752,0 24.4055,-1.88976 31.9843,-5.72441 7.61811,-3.83858 12.8937,-9.21654 15.9882,-16.0906 3.03543,-6.87795 4.83071,-14.248 5.32677,-22.063 0.5,-7.87008 0.897638,-20.4724 1.14567,-37.8622 -8.16535,11.4094 -17.5827,20.126 -28.2874,26.0512 -10.7165,5.98425 -23.4646,8.9685 -38.2087,8.9685 -17.7795,0 -33.3228,-4.5315 -46.626,-13.5984 -13.2992,-9.11811 -23.5079,-21.8189 -30.6299,-38.1575 -7.12598,-16.3307 -10.7126,-35.2126 -10.7126,-56.6299 0,-15.9409 2.19685,-30.3346 6.52756,-43.189 4.33465,-12.7992 10.5118,-23.6614 18.5787,-32.4724 8.02362,-8.8189 17.3346,-15.4409 27.7953,-19.9252 10.5118,-4.48425 22.063,-6.72835 34.6693,-6.72835 15.0394,0 28.0906,2.8937 39.0984,8.67323 11.0079,5.77953 21.2717,14.7913 30.7362,27.1417l0 -7.22441c0,-9.2126 2.29134,-16.3307 6.8189,-21.3661 4.53543,-5.08268 10.3661,-7.61811 17.4882,-7.61811 10.2598,0 17.0827,3.33465 20.4173,10.0118 3.38976,6.66929 5.08661,16.3346 5.08661,28.8898zm-153.917 67.3425c0,21.5197 4.6811,37.8071 14.0984,48.811 9.40945,11.0118 21.563,16.5433 36.5118,16.5433 8.81102,0 17.1339,-2.39764 25.0039,-7.12598 7.8189,-4.73622 14.2441,-11.8543 19.1732,-21.3701 4.92913,-9.55906 7.37402,-21.1181 7.37402,-34.7205 0,-21.6654 -4.78346,-38.5512 -14.2953,-50.6024 -9.56693,-12.0551 -22.1181,-18.0827 -37.6575,-18.0827 -15.1929,0 -27.3465,5.77953 -36.5079,17.3307 -9.11417,11.5118 -13.7008,27.9449 -13.7008,49.2165zm343.244 -126.268l-2.93701 0c-7.27165,0 -13.8543,-2.99213 -19.7283,-8.87008 -5.9252,-5.9252 -8.8622,-12.8976 -8.8622,-20.9173 0,-8.32283 2.93701,-15.2441 8.8622,-20.8228 5.87402,-5.5748 13.2008,-8.36614 21.874,-8.36614 5.97244,0 11.5472,1.74409 16.7283,5.17717 5.18504,3.44094 9.21654,8.41732 12.0551,14.9409 2.83858,6.57874 4.28346,14.5984 4.28346,24.063 0,12.8504 -2.73622,24.8543 -8.16535,36.063 -5.42913,11.252 -12.1024,20.122 -19.9252,26.6969 -7.87008,6.52756 -14.9409,9.81496 -21.3189,9.81496 -4.03543,0 -7.27165,-1.24803 -9.81496,-3.7874 -2.54331,-2.53937 -3.78346,-5.62992 -3.78346,-9.26772 0,-5.82677 2.64173,-10.1102 7.9685,-12.8465 6.87402,-3.98425 12.2559,-8.41732 16.1417,-13.2008 3.88583,-4.83071 6.07087,-11.0591 6.62205,-18.6772zm279.185 91.2008c0,21.2677 -1.29134,39.6024 -3.88583,54.8937 -2.59055,15.2913 -7.37402,29.185 -14.3898,41.6378 -8.8189,15.2953 -20.2244,27.0945 -34.2756,35.4173 -13.9961,8.3189 -29.5354,12.4528 -46.6693,12.4528 -19.7244,0 -37.4094,-5.57874 -53.0472,-16.7402 -15.5945,-11.1535 -27.3976,-26.5945 -35.3189,-46.3189 -3.98031,-10.7638 -6.97244,-22.6654 -8.8189,-35.7165 -1.88976,-13 -2.83858,-27.1457 -2.83858,-42.2913 0,-19.622 1.05118,-37.252 3.09055,-52.9488 2.09055,-15.685 5.33071,-29.185 9.76378,-40.4921 7.62205,-18.6811 18.7795,-32.874 33.374,-42.689 14.5906,-9.81496 31.9803,-14.6929 52.248,-14.6929 13.3504,0 25.4528,2.19291 36.3661,6.52756 10.9016,4.33071 20.4685,10.7047 28.689,19.0748 8.26772,8.37008 15.2441,18.6811 20.9173,31.0315 9.86614,21.4173 14.7953,51.7047 14.7953,90.8543zm-53.2953 -3.88189c0,-23.7598 -1.44488,-43.189 -4.28346,-58.2795 -2.84252,-15.0984 -7.67323,-26.5512 -14.3976,-34.2717 -6.77165,-7.72047 -16.0906,-11.5551 -28.0472,-11.5551 -17.1299,0 -29.0315,8.61417 -35.7087,25.9016 -6.67717,17.2362 -10.0118,43.8307 -10.0118,79.748 0,24.4055 1.44488,44.374 4.28346,59.9685 2.84252,15.5433 7.67323,27.3425 14.3937,35.3189 6.77559,7.9685 15.8898,11.9488 27.4488,11.9488 11.9528,0 21.2638,-4.12992 28.0394,-12.4488 6.72835,-8.31496 11.4606,-20.1732 14.2008,-35.6142 2.73622,-15.4449 4.08268,-35.6654 4.08268,-60.7165zm98.8228 -69.0394c0,-13 3.53937,-25.2047 10.6102,-36.7126 7.0748,-11.4567 17.4331,-20.6732 31.1299,-27.5433 13.6969,-6.87402 29.689,-10.311 47.9724,-10.311 15.437,0 28.9843,1.99213 40.6417,6.02756 11.7047,4.03543 21.4173,9.55906 29.185,16.6339 7.77165,7.07874 13.5512,15.0433 17.3386,23.9646 3.73228,8.8622 5.62992,18.2756 5.62992,28.2913 0,12.7008 -3.2874,24.0551 -9.81496,34.0669 -6.57087,9.96063 -16.3386,18.1339 -29.2874,24.5079 11.0079,4.28346 20.1732,9.85827 27.4449,16.8346 7.27165,6.92126 12.748,14.9488 16.4409,24.1102 3.6811,9.16142 5.52362,19.3228 5.52362,30.4843 0,16.3346 -3.93307,31.126 -11.8543,44.4291 -7.91732,13.2992 -19.5276,23.7087 -34.8189,31.2283 -15.3425,7.52756 -33.3701,11.311 -54.0906,11.311 -21.5197,0 -39.9488,-3.78346 -55.2402,-11.311 -15.3425,-7.51969 -26.8465,-17.8307 -34.6693,-31.0276 -7.76772,-13.1535 -11.6535,-27.8937 -11.6535,-44.2874 0,-34.8661 16.4803,-58.8189 49.4134,-71.7717 -26.6024,-12.4528 -39.9016,-32.0787 -39.9016,-58.9252zm139.52 128.76c0,-10.1181 -2.09449,-18.9291 -6.22441,-26.4488 -4.1378,-7.52362 -10.0157,-13.3031 -17.5354,-17.3346 -7.51969,-4.03543 -15.937,-6.0315 -25.2559,-6.0315 -13.252,0 -24.3583,4.43701 -33.2717,13.252 -8.9685,8.81496 -13.4449,21.1181 -13.4449,36.9606 0,10.1102 2.09055,19.0236 6.32283,26.748 4.23228,7.72047 9.96457,13.7008 17.2323,17.9331 7.27165,4.23228 15.3386,6.32283 24.3071,6.32283 9.06693,0 17.2402,-2.14173 24.5118,-6.4252 7.26378,-4.28346 12.9961,-10.311 17.1339,-18.0827 4.12992,-7.81496 6.22441,-16.7323 6.22441,-26.8937zm-48.6654 -166.165c-12.1535,0 -22.0157,3.77953 -29.437,11.4016 -7.47244,7.5748 -11.2087,17.3346 -11.2087,29.2402 0,11.0591 3.83465,20.2244 11.4567,27.5472 7.66929,7.3189 17.5315,11.0039 29.5866,11.0039 6.12598,0 11.6575,-0.996063 16.6378,-2.93701 4.98031,-1.94488 9.26378,-4.62992 12.8504,-8.06693 3.58661,-3.43701 6.32677,-7.52756 8.27165,-12.2559 1.94094,-4.73228 2.93701,-9.96063 2.93701,-15.6378 0,-7.67323 -1.74409,-14.5472 -5.17717,-20.622 -3.44094,-6.12992 -8.27165,-10.9094 -14.5,-14.4449 -6.22835,-3.48819 -13.3465,-5.22835 -21.4173,-5.22835z"/>
    </g>
    <path class="fil1" d="M3387.82 3138.04c0,11.3346 -2.74803,23.6654 -8.41732,36.9173 -5.58268,13.3307 -14.4173,26.3307 -26.5,39.0827 -12,12.748 -27.4173,23.1654 -46.0827,31.0827 -18.748,8 -40.5827,12 -65.5,12 -18.8346,0 -36,-1.74803 -51.5,-5.33071 -15.4173,-3.58661 -29.5,-9.16929 -42.0827,-16.752 -12.5827,-7.58268 -24.252,-17.5 -34.8346,-29.9173 -9.41732,-11.1654 -17.5,-23.748 -24.1654,-37.6654 -6.66535,-13.9173 -11.6654,-28.8346 -15,-44.5827 -3.33465,-15.752 -5,-32.5866 -5,-50.252 0,-28.8346 4.16535,-54.6654 12.5827,-77.4173 8.41732,-22.8307 20.4173,-42.248 36,-58.5 15.6654,-16.1654 33.9173,-28.5 54.9173,-37 21,-8.41732 43.4173,-12.6654 67.1654,-12.6654 29,0 54.752,5.74803 77.4173,17.3346 22.5827,11.5827 39.9173,25.8307 52,42.8307 12,17 18.0827,33.0827 18.0827,48.252 0,8.24803 -3,15.5827 -8.83071,21.9173 -5.83465,6.33071 -12.9173,9.5 -21.252,9.5 -9.24803,0 -16.248,-2.16929 -20.8346,-6.58661 -4.66535,-4.33071 -9.83071,-11.9134 -15.5,-22.6654 -9.5,-17.748 -20.5827,-31 -33.3307,-39.8346 -12.8346,-8.74803 -28.5827,-13.1654 -47.252,-13.1654 -29.8307,0 -53.5,11.3346 -71.1654,33.9173 -17.6654,22.6654 -26.5,54.8346 -26.5,96.5 0,27.8346 3.91732,51 11.748,69.4173 7.75197,18.5 18.8346,32.3307 33.1693,41.4173 14.3307,9.08268 31.0827,13.6654 50.3307,13.6654 20.8346,0 38.4173,-5.16535 52.8346,-15.5 14.4173,-10.3346 25.252,-25.5 32.5827,-45.5827 3.08268,-9.41732 6.91732,-17.0827 11.5,-23 4.5,-6 11.8346,-8.91732 21.9173,-8.91732 8.66535,0 16.0827,3 22.252,9 6.16535,6 9.24803,13.5 9.24803,22.5z"/>
    <path class="fil1" d="M3621.4 3219.54l0 -8.58268c-8,10.0827 -16.3346,18.5827 -25.1654,25.4173 -8.75197,6.83071 -18.3346,11.9134 -28.752,15.248 -10.4173,3.33465 -22.3307,5 -35.6654,5 -16.0827,0 -30.5,-3.33071 -43.3346,-10 -12.748,-6.66535 -22.6654,-15.8346 -29.6654,-27.5827 -8.25197,-14.1654 -12.4173,-34.5 -12.4173,-61l0 -132.083c0,-13.4173 3,-23.3346 9,-29.9173 6.08268,-6.58268 14,-9.91732 24,-9.91732 10.0827,0 18.1654,3.33465 24.4173,10 6.16535,6.66535 9.24803,16.5827 9.24803,29.8346l0 106.665c0,15.4173 1.33465,28.4173 3.91732,38.9173 2.58268,10.5 7.25197,18.748 14,24.6654 6.75197,5.91732 15.9173,8.91732 27.5,8.91732 11.1693,0 21.752,-3.33465 31.6693,-10 9.91339,-6.66535 17.1654,-15.4173 21.748,-26.1654 3.75197,-9.41732 5.58268,-30.0827 5.58268,-62l0 -81c0,-13.252 3.08268,-23.1693 9.25197,-29.8346 6.24803,-6.66535 14.248,-10 24.1654,-10 10,0 17.9173,3.33465 24,9.91732 6,6.58268 9,16.5 9,29.9173l0 193.083c0,12.6654 -2.91732,22.1654 -8.66535,28.5827 -5.75197,6.33465 -13.252,9.5 -22.3346,9.5 -9.16535,0 -16.6654,-3.33071 -22.5827,-9.91732 -5.91732,-6.58268 -8.91732,-15.8307 -8.91732,-27.6654z"/>
    <path class="fil1" d="M3936.32 3137.96l-130.335 0c0.169291,15.1654 3.25197,28.5 9.16929,40.0827 5.91339,11.5827 13.8307,20.248 23.6654,26.0827 9.83465,5.91732 20.748,8.83465 32.5827,8.83465 8,0 15.252,-0.917323 21.8346,-2.83465 6.58268,-1.83465 13,-4.74803 19.1654,-8.74803 6.25197,-4 11.9173,-8.25197 17.0827,-12.8346 5.25197,-4.58268 12,-10.752 20.3346,-18.5827 3.41732,-2.91732 8.24803,-4.41732 14.5827,-4.41732 6.83465,0 12.4173,1.91732 16.6654,5.66535 4.16929,3.75197 6.33465,9 6.33465,15.8346 0,6 -2.41732,13.0827 -7.08268,21.1654 -4.75197,8 -11.8346,15.752 -21.4173,23.1693 -9.5,7.41339 -21.4173,13.5827 -35.8346,18.4134 -14.4134,4.91732 -31,7.33465 -49.6654,7.33465 -42.8346,0 -76.1654,-12.1654 -99.9173,-36.5827 -23.748,-24.4173 -35.6654,-57.5827 -35.6654,-99.4173 0,-19.6654 2.91732,-38 8.83465,-54.8346 5.83071,-16.8307 14.4134,-31.248 25.5827,-43.3307 11.248,-12 25.0827,-21.252 41.5827,-27.6693 16.4173,-6.41339 34.6654,-9.66535 54.6654,-9.66535 26.0827,0 48.4173,5.5 67,16.5 18.6693,11 32.5827,25.1654 41.9173,42.5827 9.25197,17.4173 13.9173,35.1693 13.9173,53.252 0,16.748 -4.83465,27.5827 -14.4173,32.5827 -9.58268,4.91732 -23.1654,7.41732 -40.5827,7.41732zm-130.335 -37.8346l120.835 0c-1.58268,-22.748 -7.75197,-39.8346 -18.4173,-51.0827 -10.6654,-11.3346 -24.6654,-17 -42.0827,-17 -16.6654,0 -30.252,5.74803 -40.9173,17.1654 -10.6654,11.5 -17.1654,28.5 -19.4173,50.9173z"/>
    <path class="fil1" d="M4448.98 3143.54c0,21.6654 -5.58268,41.1654 -16.748,58.4173 -11.0866,17.248 -27.4173,30.748 -48.9173,40.5 -21.5,9.74803 -46.9173,14.6654 -76.4173,14.6654 -35.3346,0 -64.4173,-6.66535 -87.4173,-20 -16.248,-9.66535 -29.5,-22.4173 -39.6654,-38.5 -10.1693,-16 -15.252,-31.5827 -15.252,-46.748 0,-8.75197 3.08268,-16.3346 9.16929,-22.5866 6.08268,-6.24803 13.8307,-9.41339 23.3307,-9.41339 7.66929,0 14.0827,2.5 19.4173,7.33071 5.25197,4.91732 9.75197,12.1693 13.5,21.752 4.58268,11.4173 9.5,20.9173 14.8346,28.5827 5.24803,7.58268 12.748,13.9173 22.3307,18.9173 9.58661,4.91732 22.1693,7.41732 37.8346,7.41732 21.5,0 38.9173,-5 52.3346,-15 13.4173,-10 20.1654,-22.5 20.1654,-37.5 0,-11.8346 -3.58268,-21.5 -10.8346,-28.9173 -7.24803,-7.41732 -16.6654,-13.0827 -28.0827,-16.9173 -11.5,-3.91732 -26.8307,-8.08268 -46.0827,-12.5 -25.6654,-6 -47.248,-13.0827 -64.5827,-21.0827 -17.3346,-8.08268 -31.0827,-19.0827 -41.252,-33 -10.1654,-13.9173 -15.248,-31.1693 -15.248,-51.8346 0,-19.6654 5.33465,-37.1654 16.0827,-52.5 10.752,-15.248 26.3346,-27 46.6654,-35.248 20.3346,-8.25197 44.252,-12.3346 71.752,-12.3346 22,0 41,2.74803 57,8.16535 16.0827,5.5 29.3346,12.6693 39.9173,21.752 10.5827,9 18.3307,18.5 23.248,28.4173 4.83465,9.91339 7.33465,19.5827 7.33465,29.0827 0,8.58268 -3.08268,16.3307 -9.16535,23.248 -6.08661,6.91732 -13.752,10.4173 -22.8346,10.4173 -8.33465,0 -14.5827,-2.08268 -18.9173,-6.24803 -4.33465,-4.08661 -9,-10.9173 -14,-20.3346 -6.58268,-13.5 -14.3346,-24.0827 -23.5,-31.6654 -9.08268,-7.58661 -23.748,-11.3346 -43.9173,-11.3346 -18.748,0 -33.8307,4.08268 -45.248,12.3346 -11.5,8.24803 -17.252,18.0827 -17.252,29.6654 0,7.16535 1.91732,13.3346 5.83465,18.5 3.91732,5.24803 9.33465,9.74803 16.1654,13.5 6.83465,3.66535 13.752,6.66535 20.752,8.74803 7,2.08661 18.5,5.16929 34.6654,9.25197 20.1654,4.74803 38.4173,9.91732 54.752,15.6654 16.4134,5.66929 30.248,12.5827 41.748,20.752 11.5,8.08268 20.4173,18.4173 26.8346,30.8307 6.41732,12.5 9.66535,27.752 9.66535,45.752z"/>
    <path class="fil1" d="M4567.4 3023.54l0 8c12.5,-15.4173 25.5827,-26.8346 39.0827,-34.0827 13.5,-7.25197 28.8346,-10.8346 45.9173,-10.8346 20.5,0 39.4173,5.25197 56.6654,15.8346 17.252,10.5827 30.9173,26.0827 40.9173,46.4173 10,20.3307 15,44.4134 15,72.248 0,20.5 -2.91732,39.3346 -8.66535,56.5 -5.75197,17.1654 -13.752,31.5827 -23.8346,43.252 -10.0827,11.6654 -22,20.5827 -35.748,26.8307 -13.752,6.25197 -28.5866,9.41732 -44.3346,9.41732 -19.0827,0 -35.0827,-3.83071 -48,-11.5 -12.9173,-7.58268 -25.252,-18.8346 -37,-33.6654l0 100.165c0,29.252 -10.6654,43.9173 -32,43.9173 -12.5,0 -20.8346,-3.74803 -24.9173,-11.3346 -4.08268,-7.58268 -6.08268,-18.5827 -6.08268,-33.0827l0 -287.665c0,-12.6693 2.74803,-22.1693 8.33465,-28.4173 5.5,-6.25197 13.0827,-9.41732 22.6654,-9.41732 9.41732,0 17.1654,3.25197 23.0827,9.66535 5.91732,6.41732 8.91732,15.6693 8.91732,27.752zm130.665 96.9173c0,-17.5827 -2.66535,-32.6693 -8.08268,-45.3346 -5.33465,-12.5827 -12.8346,-22.248 -22.3346,-29 -9.5,-6.74803 -20.0827,-10.1654 -31.5827,-10.1654 -18.4173,0 -33.9173,7.24803 -46.5827,21.748 -12.5827,14.5 -18.9173,35.752 -18.9173,63.9173 0,26.5827 6.25197,47.1654 18.8346,61.9173 12.5,14.748 28.0827,22.0827 46.6654,22.0827 11,0 21.3346,-3.24803 30.752,-9.66535 9.41732,-6.41732 17,-16.0827 22.6654,-28.9173 5.75197,-12.8346 8.58268,-28.4173 8.58268,-46.5827z"/>
    <path class="fil1" d="M5067.9 3121.62c0,19.8346 -3.08268,38.1654 -9.25197,54.9173 -6.24803,16.748 -15.1654,31.1654 -26.9134,43.248 -11.6693,12 -25.6693,21.252 -41.9173,27.6693 -16.3346,6.41732 -34.5827,9.66535 -54.9173,9.66535 -20.252,0 -38.3346,-3.24803 -54.5,-9.74803 -16.0827,-6.5 -30,-15.8346 -41.8346,-28 -11.8307,-12.0866 -20.748,-26.4173 -26.8307,-42.9173 -6.08661,-16.5827 -9.16929,-34.8346 -9.16929,-54.8346 0,-20.1654 3.08268,-38.6654 9.25197,-55.4173 6.24803,-16.748 15.0827,-31.0827 26.6654,-43 11.5,-11.8307 25.5,-21 41.9173,-27.4173 16.5,-6.41339 34.5827,-9.66535 54.5,-9.66535 20.1654,0 38.4173,3.25197 54.9173,9.75197 16.4173,6.5 30.5,15.8307 42.1654,27.8307 11.752,12.0827 20.6654,26.4173 26.752,43 6.08268,16.5827 9.16535,34.9173 9.16535,54.9173zm-66.9173 0c0,-27.1654 -6,-48.3346 -17.9173,-63.5 -12,-15.0827 -28,-22.6654 -48.1654,-22.6654 -13.0827,0 -24.5,3.41732 -34.4173,10.1654 -9.91732,6.75197 -17.5827,16.6654 -22.9173,29.8346 -5.41732,13.248 -8.08268,28.5827 -8.08268,46.1654 0,17.4173 2.66535,32.5827 7.91732,45.6654 5.33465,13 12.8346,23 22.6654,29.9173 9.91732,6.91732 21.5,10.3346 34.8346,10.3346 20.1654,0 36.1654,-7.58268 48.1654,-22.8346 11.9173,-15.1654 17.9173,-36.248 17.9173,-63.0827z"/>
    <path class="fil1" d="M5186.57 3160.87l0 55.748c0,13.5 -3.16535,23.5827 -9.5,30.3346 -6.33071,6.74803 -14.4173,10.1654 -24.1654,10.1654 -9.66535,0 -17.5,-3.41732 -23.752,-10.248 -6.16535,-6.83465 -9.24803,-16.9173 -9.24803,-30.252l0 -185.583c0,-29.9173 10.8346,-44.9173 32.5,-44.9173 11.0827,0 19,3.5 23.9173,10.5 4.91732,7 7.58268,17.3346 8.08268,31 7.91732,-13.6654 16.0827,-24 24.5,-31 8.41732,-7 19.5827,-10.5 33.5827,-10.5 14,0 27.5827,3.5 40.752,10.5 13.1654,7 19.748,16.252 19.748,27.8346 0,8.08268 -2.74803,14.8307 -8.41732,20.0827 -5.58268,5.33465 -11.6654,7.91732 -18.1654,7.91732 -2.41732,0 -8.33465,-1.5 -17.6654,-4.5 -9.41732,-3 -17.6693,-4.5 -24.8346,-4.5 -9.75197,0 -17.752,2.58268 -23.9173,7.66535 -6.16535,5.16535 -11,12.752 -14.4173,22.8346 -3.41732,10.0827 -5.74803,22.0827 -7.08268,36.0827 -1.24803,13.9173 -1.91732,30.8346 -1.91732,50.8346z"/>
    <path class="fil1" d="M5349.15 2992.04l7.33465 0 0 -40.0827c0,-10.752 0.248031,-19.1693 0.834646,-25.252 0.582677,-6.16535 2.16535,-11.4173 4.74803,-15.748 2.66535,-4.58268 6.41732,-8.25197 11.252,-11.1693 4.91339,-2.83071 10.3307,-4.24803 16.4134,-4.24803 8.41732,0 16.0866,3.16535 22.9173,9.5 4.58268,4.24803 7.41732,9.41732 8.66929,15.5 1.24803,6.16535 1.83071,14.8346 1.83071,26.0827l0 45.4173 24.4173 0c9.41732,0 16.6654,2.24803 21.5827,6.74803 5,4.41732 7.5,10.1693 7.5,17.1693 0,8.91732 -3.58268,15.248 -10.6654,18.8307 -7.08268,3.58661 -17.1654,5.33465 -30.4173,5.33465l-12.4173 0 0 122.5c0,10.4173 0.334646,18.5 1.08268,24.0827 0.751969,5.58268 2.66929,10.1693 5.83465,13.6693 3.25197,3.5 8.41732,5.24803 15.5827,5.24803 3.83465,0 9.16929,-0.665354 15.8346,-2.08268 6.66535,-1.41732 11.9173,-2.08268 15.5827,-2.08268 5.41732,0 10.252,2.16535 14.5827,6.5 4.33465,4.33071 6.41732,9.58268 6.41732,16 0,10.748 -5.83465,18.9173 -17.5827,24.5827 -11.6654,5.75197 -28.5,8.58268 -50.5,8.58268 -20.8346,0 -36.6654,-3.5 -47.3346,-10.5 -10.748,-7 -17.8307,-16.6654 -21.1654,-29.0827 -3.33465,-12.3346 -5,-28.8346 -5,-49.5l0 -127.917 -8.75197 0c-9.66535,0 -17,-2.24803 -22,-6.83465 -5.08268,-4.58268 -7.58268,-10.3307 -7.58268,-17.3307 0,-7 2.66929,-12.752 7.91732,-17.1693 5.33465,-4.5 13,-6.74803 23.0827,-6.74803z"/>
    <path class="fil1" d="M5957.07 3138.04c0,11.3346 -2.74803,23.6654 -8.41732,36.9173 -5.58268,13.3307 -14.4173,26.3307 -26.5,39.0827 -12,12.748 -27.4173,23.1654 -46.0827,31.0827 -18.748,8 -40.5827,12 -65.5,12 -18.8346,0 -36,-1.74803 -51.5,-5.33071 -15.4173,-3.58661 -29.5,-9.16929 -42.0827,-16.752 -12.5827,-7.58268 -24.252,-17.5 -34.8346,-29.9173 -9.41732,-11.1654 -17.5,-23.748 -24.1654,-37.6654 -6.66535,-13.9173 -11.6654,-28.8346 -15,-44.5827 -3.33465,-15.752 -5,-32.5866 -5,-50.252 0,-28.8346 4.16535,-54.6654 12.5827,-77.4173 8.41732,-22.8307 20.4173,-42.248 36,-58.5 15.6654,-16.1654 33.9173,-28.5 54.9173,-37 21,-8.41732 43.4173,-12.6654 67.1654,-12.6654 29,0 54.752,5.74803 77.4173,17.3346 22.5827,11.5827 39.9173,25.8307 52,42.8307 12,17 18.0827,33.0827 18.0827,48.252 0,8.24803 -3,15.5827 -8.83071,21.9173 -5.83465,6.33071 -12.9173,9.5 -21.252,9.5 -9.24803,0 -16.248,-2.16929 -20.8346,-6.58661 -4.66535,-4.33071 -9.83071,-11.9134 -15.5,-22.6654 -9.5,-17.748 -20.5827,-31 -33.3307,-39.8346 -12.8346,-8.74803 -28.5827,-13.1654 -47.252,-13.1654 -29.8307,0 -53.5,11.3346 -71.1654,33.9173 -17.6654,22.6654 -26.5,54.8346 -26.5,96.5 0,27.8346 3.91732,51 11.748,69.4173 7.75197,18.5 18.8346,32.3307 33.1693,41.4173 14.3307,9.08268 31.0827,13.6654 50.3307,13.6654 20.8346,0 38.4173,-5.16535 52.8346,-15.5 14.4173,-10.3346 25.252,-25.5 32.5827,-45.5827 3.08268,-9.41732 6.91732,-17.0827 11.5,-23 4.5,-6 11.8346,-8.91732 21.9173,-8.91732 8.66535,0 16.0827,3 22.252,9 6.16535,6 9.24803,13.5 9.24803,22.5z"/>
    <path class="fil1" d="M6017.57 3216.62l0 -289.083c0,-13.3346 3,-23.4173 8.91732,-30.252 5.91732,-6.83071 13.9173,-10.248 24.0827,-10.248 10.0827,0 18.1654,3.41732 24.4173,10.1654 6.16535,6.75197 9.24803,16.8346 9.24803,30.3346l0 289.083c0,13.5 -3.16535,23.5827 -9.41732,30.3346 -6.24803,6.74803 -14.3307,10.1654 -24.248,10.1654 -9.83465,0 -17.752,-3.5 -23.8346,-10.5 -6.08268,-7 -9.16535,-17 -9.16535,-30z"/>
    <path class="fil1" d="M6326.15 3219.54l0 -8.58268c-8,10.0827 -16.3346,18.5827 -25.1654,25.4173 -8.75197,6.83071 -18.3346,11.9134 -28.752,15.248 -10.4173,3.33465 -22.3307,5 -35.6654,5 -16.0827,0 -30.5,-3.33071 -43.3346,-10 -12.748,-6.66535 -22.6654,-15.8346 -29.6654,-27.5827 -8.25197,-14.1654 -12.4173,-34.5 -12.4173,-61l0 -132.083c0,-13.4173 3,-23.3346 9,-29.9173 6.08268,-6.58268 14,-9.91732 24,-9.91732 10.0827,0 18.1654,3.33465 24.4173,10 6.16535,6.66535 9.24803,16.5827 9.24803,29.8346l0 106.665c0,15.4173 1.33465,28.4173 3.91732,38.9173 2.58268,10.5 7.25197,18.748 14,24.6654 6.75197,5.91732 15.9173,8.91732 27.5,8.91732 11.1693,0 21.752,-3.33465 31.6693,-10 9.91339,-6.66535 17.1654,-15.4173 21.748,-26.1654 3.75197,-9.41732 5.58268,-30.0827 5.58268,-62l0 -81c0,-13.252 3.08268,-23.1693 9.25197,-29.8346 6.24803,-6.66535 14.248,-10 24.1654,-10 10,0 17.9173,3.33465 24,9.91732 6,6.58268 9,16.5 9,29.9173l0 193.083c0,12.6654 -2.91732,22.1654 -8.66535,28.5827 -5.75197,6.33465 -13.252,9.5 -22.3346,9.5 -9.16535,0 -16.6654,-3.33071 -22.5827,-9.91732 -5.91732,-6.58268 -8.91732,-15.8307 -8.91732,-27.6654z"/>
    <path class="fil1" d="M6516.57 2925.12l0 101.835c12.5,-13.0827 25.3346,-23 38.3346,-29.9173 13,-6.91732 29.1654,-10.4173 48.3307,-10.4173 22.1693,0 41.5827,5.25197 58.252,15.752 16.748,10.5 29.6654,25.748 38.8307,45.6654 9.25197,19.9173 13.8346,43.5827 13.8346,70.9173 0,20.1654 -2.58268,38.6654 -7.66535,55.5 -5.16929,16.8307 -12.5827,31.5 -22.3346,43.8307 -9.83465,12.4173 -21.6654,21.9173 -35.5827,28.6693 -13.9173,6.74803 -29.252,10.1654 -46,10.1654 -10.252,0 -19.9173,-1.24803 -29,-3.66535 -9,-2.41732 -16.6654,-5.66929 -23.0827,-9.66929 -6.33465,-3.91339 -11.752,-8.08268 -16.252,-12.3307 -4.41732,-4.16929 -10.3307,-10.5 -17.6654,-19l0 6.58268c0,12.5 -3,22 -9,28.4173 -6.08268,6.41732 -13.752,9.66535 -23,9.66535 -9.41732,0 -17,-3.24803 -22.5827,-9.66535 -5.58268,-6.41732 -8.41732,-15.9173 -8.41732,-28.4173l0 -291c0,-13.5 2.74803,-23.752 8.16535,-30.6654 5.5,-6.91732 13.0827,-10.3346 22.8346,-10.3346 10.248,0 18.1654,3.33465 23.6654,9.91732 5.58268,6.58268 8.33465,16 8.33465,28.1654zm3.16535 198c0,26.5 6.08268,46.9173 18.1693,61.1654 12.1654,14.252 28.0827,21.3346 47.748,21.3346 16.8346,0 31.252,-7.24803 43.4173,-21.8346 12.0827,-14.5827 18.1654,-35.4134 18.1654,-62.6654 0,-17.5827 -2.5,-32.6654 -7.58268,-45.3346 -5,-12.748 -12.1654,-22.5827 -21.5,-29.5 -9.24803,-6.91339 -20.0827,-10.3307 -32.5,-10.3307 -12.6654,0 -24,3.41732 -33.9173,10.3307 -9.91732,6.91732 -17.748,17 -23.4173,30.0866 -5.74803,13.0827 -8.58268,28.6654 -8.58268,46.748z"/>
   </g>
  </g>
 </g>
</svg>
